<svg xmlns="http://www.w3.org/2000/svg" width="150" height="150" viewBox="0 0 150 150">
  <defs>
    <style>
      .cls-1 {
        fill: #64ffda;
        fill-rule: evenodd;
      }
    </style>
  </defs>
  <path id="Stag_1" data-name="Stag 1" class="cls-1" d="M73.479,28a0.878,0.878,0,0,0-.64.51c-1.373,4.113,1.087,10.025-3.36,10.877l0.64,1.36c2.279,0.044,5.533.2,7.36-.51l0.96-1.87c-1.629.051-3.451,0.426-4.64-.17Q73.639,33.1,73.479,28Zm8.48,0.34c-0.994.924-.879,2.67-1.28,4.249-1.344,5.291-2.828,9.64-7.52,11.388-3.283-1.316-5.613-6.566-7.2-9.688h-0.64V34.8c2.019,4.536,7.056,12.7-.8,14.277-3.245.65-9.344-7.569-11.2-9.518l-0.8.17c1.269,4.392,6.832,5.911,7.04,11.387-5.338,8.621-13.806-4.919-16.48-3.229l0.32,0.51c2.283,1.018,7.234,4.63,7.52,7.648l-0.64.85c-2.6.749-8.807-.354-11.04,1.02l0.16,0.34C51.092,60.112,54.283,56.3,61.639,52.3l7.84-3.4c2.126-1.54,7.3-5.4,10.24-5.609l-0.16.34A3.089,3.089,0,0,0,77.8,45v0.85h1.44v0.17c-3.813.1-5.459,2.455-6.56,5.438v0.17c5.049,0.455,4.619-3.022,7.52-4.759v0.17c-0.373.732-.437,0.62-0.16,1.359,1.9,0.972,4.112,3.047,7.36,1.7l3.36-1.7c2.606-.571,3.932.956,5.76-0.17l0.16-.85H96.36c-0.733-.3-1.681-0.351-2.24-0.68v-0.68c1.146-.772,3.113-1.116,4.32-1.87l-0.16-1.02a0.628,0.628,0,0,0-.32-0.34c-2.86-1.255-6.772-1.117-9.28-2.719V39.9l0.48-1.359H88.84c-1.814-.716-2.882,1.04-4.48.34l-0.16-.51c0.316-3.484,2.667-5.91,4.16-8.328l-0.16-.51h-0.48L82.279,36.5c0.043,1.587.5,3.614,0.16,4.249v-0.34C80.865,37.442,83.032,31.324,81.959,28.339Zm-20.32.34c-1.229,1.052.739,8.706-.32,10.878-8.493,1.239-9.47-5.24-12.96-9.688h-0.64l-0.16.17c1.5,3,3.6,5.317,4.8,8.668l-0.48.68c-6.388.264-9.183-4.972-13.6-7.478-0.423.758-.361,0.353,0.16,1.19,4.222,2.151,7.686,10.515,14.72,8.5v-0.17a2.15,2.15,0,0,1-.96-1.7l0.48-.34h0.96l2.4,2.209,11.52-.679v-0.17l-0.48-1.19C61.243,39.221,63.516,33.048,61.639,28.679Zm26.4,12.067c-0.423.529-2.582,1.018-3.2,1.19l0.64-.85Zm-1.12.68,0.8,0.51v0.51l-0.64.68a2.3,2.3,0,0,1-1.28-.34v-0.17A1.4,1.4,0,0,1,86.919,41.426Zm0.32,0.51-0.96.17v0.68h0.64A1.551,1.551,0,0,0,87.239,41.936Zm16,53.537,0.96,0.17v0.85c-0.845,2.585-2.978,2.981-3.2,6.118h0.16l2.24-1.19v0.17l-0.32.17c-0.51.447-4.289,3.926-1.28,4.079l3.2-1.189V103.8q-0.321-1.02-.64-2.04c2.745-2.144,3.819-16.676,1.6-20.735-4.689-1.2-11.036-.986-13.6-4.419l0.16-.17c5.232,3.558,8.8,4.2,13.761.34,1.014-.789,1.474-1.969,2.88-2.379,1.667,2.911-.534,9.3.8,11.047h0.96c-0.091,3.335-2.467,3-2.72,6.288,0.053,0.114.106,0.227,0.16,0.34h0.16l2.88-1.359v0.17l-0.32.17L109,92.414q-0.081.935-.16,1.87H113v-0.51c-0.935-3.137,2.1-26.418-4.64-24.474l-8.32,5.949v-0.68c0.932-2.539,2.2-7.379,1.12-10.708-0.949-2.912-7.694-10.665-10.4-11.9-2.385-1.086-4.937-.351-7.68-1.19l-3.52-2.38-0.48.34a5.177,5.177,0,0,1-2.88,2.889c0.022,4.412,4.119,12.153,3.52,13.767-1.9,5.1-19.289,6.789-24.32,10.028-3.307,2.129-3.779,5.347-8.48,6.288l-0.16.34,0.96,0.85,2.08,0.34v0.68c-2.785,7.92,3.217,10.121-4.96,15.126v0.51c0.934,0.825,4.926,10.984,5.6,12.747l0.8,3.739,1.28-.68,1.28,1.36,0.96-.68c-0.522,1.657-1.232,2.794-.8,4.929a4.7,4.7,0,0,0,3.68,1.019v-0.849q-0.88-1.7-1.76-3.4h0.48l1.12,2.209h1.6l0.16-.34c-1.584-5.777-10.305-8.931-9.76-17.336,0.234-3.6,5.173-5.406,7.36-7.138,4.258-3.373,6.65-6.607,7.84-13.427H65V82.9c-0.746,2.839-1.735,4.813-2.56,7.138,7.374,0.152,23.607-2.707,28.161-5.609a6.792,6.792,0,0,1-3.2-2.55c2.511,0.855,4.149,2.945,7.52,3.569,3.015,0.558,6.213-1.341,8.32-.51l0.64,0.34C104.726,88.861,103.467,92.645,103.24,95.474Zm-37.6-5.1h-3.52c-2.536,3.417-7.341,5.341-9.6,8.5l-0.32.17c-0.311,1.129,1.663,2.563,2.08,3.229l3.2,7.139c0.375,1.361.245,2.6,0.8,3.569h0.16l1.28-1.02,1.12,1.359,1.76-1.189-1.76,1.7c-0.089,4,1.636,5.446,4.64,6.118,0.021-2.02-.5-2.855-0.8-4.419h0.16l0.16,0.34c0.463,0.934.339,1.874,1.44,2.21l0.8-1.02c-1.63-4.613-12.7-12.285-10.56-18.526C58.013,95.825,63.6,93.184,65.639,90.375Z"/>
</svg>
